<?xml version="1.0" encoding="iso-8859-1"?>
<!-- Uploaded to: SVG Repo, www.svgrepo.com, Generator: SVG Repo Mixer Tools -->
<svg height="800px" width="800px" version="1.1" id="Layer_1" xmlns="http://www.w3.org/2000/svg" xmlns:xlink="http://www.w3.org/1999/xlink" 
	 viewBox="0 0 512 512" xml:space="preserve">
<path style="fill:#663310;" d="M503.395,51.63l-43.486,56.333h-50.407v298.625l-42.294,53.782h-223.61h-42.294V107.963h-92.7
	L52.092,51.63h92.701h265.901H503.395z"/>
<path style="fill:#825934;" d="M144.195,460.37V107.963h265.903v298.625l-42.294,53.782H144.195L144.195,460.37z"/>
<path style="fill:#967342;" d="M101.902,460.37V107.963h265.903V460.37H101.902L101.902,460.37z"/>
<path style="fill:#FFD63E;" d="M194.513,317.81c0,10.518-8.537,19.045-19.072,19.045c-10.53,0-19.07-8.527-19.07-19.045
	s8.539-19.047,19.07-19.047C185.976,298.763,194.513,307.292,194.513,317.81z M295.621,263.521c10.53,0,19.07-8.525,19.07-19.046
	c0-10.518-8.539-19.045-19.07-19.045s-19.07,8.528-19.07,19.045C276.551,254.996,285.09,263.521,295.621,263.521z M213.581,372.098
	c-10.53,0-19.07,8.527-19.07,19.046c0,10.516,8.539,19.045,19.07,19.045c10.536,0,19.07-8.528,19.07-19.045
	C232.652,380.625,224.117,372.098,213.581,372.098z M213.581,225.431c-10.53,0-19.07,8.528-19.07,19.045
	c0,10.52,8.539,19.046,19.07,19.046c10.536,0,19.07-8.525,19.07-19.046C232.652,233.957,224.117,225.431,213.581,225.431z
	 M295.621,372.098c-10.53,0-19.07,8.527-19.07,19.046c0,10.516,8.539,19.045,19.07,19.045s19.07-8.528,19.07-19.045
	C314.69,380.625,306.151,372.098,295.621,372.098z M257.48,298.763c-10.53,0-19.07,8.528-19.07,19.047
	c0,10.517,8.539,19.045,19.07,19.045c10.53,0,19.07-8.527,19.07-19.045C276.551,307.292,268.011,298.763,257.48,298.763z"/>
<path style="fill:#CAA661;" d="M52.092,51.63h92.701l-43.488,56.333H8.605L52.092,51.63z M410.694,51.63l-43.486,56.333h92.701
	l43.486-56.333H410.694z"/>
<path d="M511.118,47.836c-1.447-2.945-4.442-4.81-7.723-4.81h-92.701h-265.9H52.092c-2.666,0-5.182,1.236-6.812,3.346L1.794,102.705
	c-2.005,2.598-2.359,6.109-0.912,9.053c1.447,2.945,4.442,4.81,7.723,4.81h84.096V460.37c0,4.753,3.853,8.605,8.605,8.605h0.596
	h265.307h0.596c3.753,0,6.937-2.407,8.113-5.759l40.348-51.309c1.193-1.517,1.841-3.39,1.841-5.319v-290.02h41.802
	c2.668,0,5.182-1.236,6.812-3.346l43.486-56.333c1.253-1.623,1.861-3.603,1.787-5.579C511.949,50.124,511.66,48.94,511.118,47.836z
	 M362.98,99.358H118.819l30.202-39.123H393.18L362.98,99.358z M26.118,99.358l30.203-39.123h70.959L97.078,99.358H26.118z
	 M110.507,451.765V116.568H359.2v335.197H110.507z M400.897,403.61l-24.488,31.138v-318.18h24.488V403.61z M455.682,99.358h-46.18
	h-24.779l30.199-39.123h70.959L455.682,99.358z M213.581,363.493c-15.261,0-27.676,12.404-27.676,27.651
	c0,15.246,12.415,27.65,27.676,27.65c15.26,0,27.675-12.403,27.675-27.65C241.256,375.898,228.841,363.493,213.581,363.493z
	 M213.581,401.584c-5.771,0-10.466-4.683-10.466-10.44c0-5.758,4.695-10.441,10.466-10.441s10.465,4.683,10.465,10.441
	C224.046,396.9,219.352,401.584,213.581,401.584z M213.581,272.126c15.26,0,27.675-12.404,27.675-27.651
	c0-15.246-12.415-27.65-27.675-27.65c-15.261,0-27.676,12.403-27.676,27.65C185.906,259.722,198.321,272.126,213.581,272.126z
	 M213.581,234.036c5.771,0,10.465,4.683,10.465,10.44c0,5.757-4.694,10.441-10.465,10.441c-5.771,0-10.466-4.683-10.466-10.441
	C203.116,238.719,207.811,234.036,213.581,234.036z M285.155,317.81c0-15.247-12.415-27.652-27.674-27.652
	c-15.261,0-27.676,12.404-27.676,27.652c0,15.246,12.416,27.65,27.676,27.65C272.74,345.46,285.155,333.056,285.155,317.81z
	 M257.481,328.25c-5.771,0-10.466-4.683-10.466-10.44c0-5.758,4.695-10.442,10.466-10.442c5.77,0,10.464,4.684,10.464,10.442
	C267.945,323.567,263.251,328.25,257.481,328.25z M295.621,363.493c-15.261,0-27.676,12.404-27.676,27.651
	c0,15.246,12.415,27.65,27.676,27.65c15.261,0,27.675-12.403,27.675-27.65C323.295,375.898,310.881,363.493,295.621,363.493z
	 M295.621,401.584c-5.771,0-10.466-4.683-10.466-10.44c0-5.758,4.694-10.441,10.466-10.441c5.771,0,10.465,4.683,10.465,10.441
	C306.085,396.9,301.391,401.584,295.621,401.584z M295.621,216.826c-15.261,0-27.676,12.403-27.676,27.65
	c0,15.247,12.415,27.651,27.676,27.651c15.261,0,27.675-12.404,27.675-27.651C323.295,229.229,310.881,216.826,295.621,216.826z
	 M295.621,254.916c-5.771,0-10.466-4.683-10.466-10.441c0-5.757,4.694-10.44,10.466-10.44c5.771,0,10.465,4.683,10.465,10.44
	C306.085,250.233,301.391,254.916,295.621,254.916z M203.119,317.81c0-15.247-12.417-27.652-27.678-27.652
	c-15.26,0-27.675,12.404-27.675,27.652c0,15.246,12.415,27.65,27.675,27.65C190.703,345.46,203.119,333.056,203.119,317.81z
	 M175.44,328.25c-5.771,0-10.465-4.683-10.465-10.44c0-5.758,4.694-10.442,10.465-10.442c5.772,0,10.468,4.684,10.468,10.442
	C185.908,323.567,181.213,328.25,175.44,328.25z"/>
</svg>